<svg width="48" height="59" viewBox="0 0 48 59" fill="none" xmlns="http://www.w3.org/2000/svg">
<path d="M46.8978 25.0728L41.1429 9.58485V1.40471C41.1429 0.628949 40.5032 0 39.7144 0H8.28585C7.49694 0 6.85733 0.629064 6.85733 1.40471V9.58473L1.10214 25.0728C0.419274 26.9075 0.0703893 28.8461 0.0714747 30.7998V54.1585C0.0714747 56.8281 2.28011 59 4.99499 59H43.005C45.7199 59 47.9285 56.8281 47.9285 54.1585V30.7998C47.9285 28.8402 47.5817 26.9132 46.8978 25.0728ZM9.71425 2.80953H38.2857V8.42859H9.71425V2.80953ZM45.0715 49.2966H24.9077C24.1188 49.2966 23.4792 49.9256 23.4792 50.7013C23.4792 51.477 24.1189 52.106 24.9077 52.106H45.0715V54.1583C45.0715 55.2787 44.1445 56.1904 43.005 56.1904H4.99499C3.85558 56.1904 2.92862 55.2789 2.92862 54.1583V30.7998C2.92774 29.1751 3.21788 27.5628 3.78573 26.037L9.28475 11.2381H38.7152L44.2142 26.037C44.7821 27.5628 45.0722 29.1751 45.0714 30.7998L45.0715 49.2966Z" fill="#F1CDB3"/>
<path d="M29.6169 33.2416C29.1505 30.3626 26.6078 28.1548 23.5505 28.1548C20.4932 28.1548 17.9504 30.3626 17.484 33.2416C15.067 34.2189 13.4857 36.6544 13.6899 39.2998C13.9175 42.2476 16.3506 44.6355 19.349 44.8546C20.5071 44.9394 21.6572 44.7051 22.6751 44.1771C23.2315 43.8889 23.8697 43.8887 24.4256 44.1772C25.3085 44.6343 26.2914 44.8726 27.2891 44.8715C27.4429 44.8715 27.5974 44.8659 27.7516 44.8547C30.7502 44.6357 33.1832 42.2477 33.411 39.2999C33.6152 36.6544 32.0339 34.2189 29.6169 33.2416ZM30.562 39.087C30.4405 40.6609 29.1415 41.9358 27.5402 42.0528C26.9176 42.0991 26.3013 41.9737 25.7586 41.692C25.0781 41.3388 24.3201 41.1542 23.5506 41.1542C22.781 41.1542 22.0231 41.3388 21.3425 41.692C20.7999 41.9735 20.1849 42.0987 19.5608 42.0528C17.9597 41.9359 16.6606 40.661 16.5391 39.087C16.4143 37.4711 17.5296 36.0022 19.1331 35.6701C19.4588 35.6026 19.7503 35.4255 19.9573 35.1692C20.1643 34.913 20.2739 34.5937 20.2671 34.2665L20.2648 34.1954C20.2648 32.4138 21.7386 30.9645 23.5505 30.9645C25.3623 30.9645 26.8362 32.4138 26.8362 34.1903L26.834 34.2665C26.827 34.5937 26.9366 34.9131 27.1436 35.1693C27.3507 35.4256 27.6423 35.6027 27.968 35.6701C29.5717 36.0022 30.6868 37.4711 30.562 39.087Z" fill="#F1CDB3"/>
<path d="M23.5506 25.3455C26.1108 25.3455 28.1934 23.2975 28.1934 20.78C28.1934 18.2625 26.1108 16.2145 23.5506 16.2145C20.9904 16.2145 18.9077 18.2626 18.9077 20.78C18.9077 23.2974 20.9906 25.3455 23.5506 25.3455ZM23.5506 19.0241C24.5353 19.0241 25.3363 19.8117 25.3363 20.78C25.3363 21.7483 24.5353 22.5359 23.5506 22.5359C22.5659 22.5359 21.7649 21.7483 21.7649 20.78C21.7649 19.8117 22.566 19.0241 23.5506 19.0241Z" fill="#F1CDB3"/>
<path d="M18.1935 26.2118C18.1935 23.6943 16.1107 21.6464 13.5506 21.6464C10.9905 21.6464 8.90777 23.6944 8.90777 26.2118C8.90777 28.7292 10.9904 30.7773 13.5506 30.7773C16.1108 30.7773 18.1935 28.7292 18.1935 26.2118ZM13.5506 27.9678C12.5659 27.9678 11.7649 27.1801 11.7649 26.2118C11.7649 25.2435 12.5659 24.4559 13.5506 24.4559C14.5353 24.4559 15.3363 25.2435 15.3363 26.2118C15.3363 27.1801 14.5352 27.9678 13.5506 27.9678Z" fill="#F1CDB3"/>
<path d="M33.5506 21.6462C30.9904 21.6462 28.9077 23.6943 28.9077 26.2117C28.9077 28.7291 30.9906 30.7772 33.5506 30.7772C36.1107 30.7772 38.1934 28.7292 38.1934 26.2117C38.1934 23.6942 36.1107 21.6462 33.5506 21.6462ZM33.5506 27.9678C32.5658 27.9678 31.7649 27.1801 31.7649 26.2118C31.7649 25.2435 32.5659 24.4559 33.5506 24.4559C34.5353 24.4559 35.3363 25.2435 35.3363 26.2118C35.3363 27.1801 34.5353 27.9678 33.5506 27.9678Z" fill="#F1CDB3"/>
<path d="M18.6934 49.2966H18.3465C17.5576 49.2966 16.918 49.9257 16.918 50.7013C16.918 51.4771 17.5577 52.106 18.3465 52.106H18.6934C19.4823 52.106 20.1219 51.477 20.1219 50.7013C20.122 49.9257 19.4824 49.2966 18.6934 49.2966Z" fill="#F1CDB3"/>
</svg>
